<?xml version="1.0" encoding="UTF-8"?>
<svg width="160px" height="160px" viewBox="0 0 160 160" version="1.1" xmlns="http://www.w3.org/2000/svg" xmlns:xlink="http://www.w3.org/1999/xlink">
    <!-- Generator: Sketch 54 (76480) - https://sketchapp.com -->
    <title>additional</title>
    <desc>Created with Sketch.</desc>
    <g id="Page-1" stroke="none" stroke-width="1" fill="none" fill-rule="evenodd">
        <g id="additional" fill="#000000" fill-rule="nonzero">
            <path d="M146.317121,14.9532711 L117.895498,14.9532711 C116.711263,9.96884734 111.382209,6.47975078 104.86892,6.47975078 L90.6581088,6.47975078 C88.8817572,2.49221187 84.7369372,0 80,0 C75.2630628,0 70.5261257,2.49221187 68.7497741,5.98130844 L54.5389624,5.98130844 C48.0256737,5.98130844 42.6966194,9.96884734 41.5123852,14.4548286 L13.0907619,14.4548286 C5.39323898,14.9532711 0.0641845012,19.9376947 0.0641845012,26.4174455 L0.0641845012,148.535825 C0.0641845012,154.517134 5.9853561,160 13.0907619,160 L146.317121,160 C153.422527,160 159.935815,155.015576 159.935815,148.535825 L159.935815,26.4174455 C159.935815,19.9376947 154.014644,14.9532709 146.317121,14.9532711 Z M80,20.436137 C85.9211716,20.436137 90.6581088,24.4236759 90.6581088,29.4080997 C90.6581088,34.3925234 85.9211716,38.3800623 80,38.3800623 C74.0788284,38.3800623 69.3418912,34.3925234 69.3418912,29.4080997 C69.3418912,24.4236759 74.0788284,20.436137 80,20.436137 Z M120.856084,114.143302 C120.856084,116.635514 118.487615,118.130841 116.119146,118.130841 L43.8808538,118.130841 C40.920268,118.130841 39.1439167,116.137072 39.1439165,114.143302 L39.1439165,110.155763 C39.1439165,107.663551 41.5123852,106.168224 43.8808538,106.168224 L116.119146,106.168224 C119.079732,106.168224 120.856083,108.161994 120.856084,110.155763 L120.856084,114.143302 Z M120.856084,75.7632398 C120.856084,78.2554517 118.487615,79.7507788 116.119146,79.7507788 L43.8808538,79.7507788 C40.920268,79.7507788 39.1439167,77.7570092 39.1439165,75.7632398 L39.1439165,71.7757009 C39.1439165,69.2834891 41.5123852,67.788162 43.8808538,67.788162 L116.119146,67.788162 C119.079732,67.788162 120.856083,69.7819316 120.856084,71.7757009 L120.856084,75.7632398 Z" id="Shape"></path>
        </g>
    </g>
</svg>