<?xml version="1.0" standalone="no"?><!DOCTYPE svg PUBLIC "-//W3C//DTD SVG 1.1//EN" "http://www.w3.org/Graphics/SVG/1.1/DTD/svg11.dtd"><svg t="1571323525516" class="icon" viewBox="0 0 1024 1024" version="1.1" xmlns="http://www.w3.org/2000/svg" p-id="10496" xmlns:xlink="http://www.w3.org/1999/xlink" width="200" height="200"><defs><style type="text/css"></style></defs><path d="M157.47584 346.16832c-9.40544-17.69472-31.39072-24.43776-49.09568-15.01184-17.70496 9.42592-24.43776 31.39072-15.02208 49.11616l52.54656 98.816c3.11296 18.03776 16.58368 34.10944 36.22912 40.07424l688.52736 210.55488c27.11552 8.2688 55.51616-5.71904 63.33952-31.3088 7.82336-25.53856-35.91168-112.19456-113.44896-135.89504l-154.19392-28.18048L389.95968 173.63968c-13.32224-25.07776-43.27424-35.23072-66.8672-22.69184-23.62368 12.54912-31.92832 43.0592-18.60096 68.13696l146.72896 275.95776-237.696-43.42272L157.47584 346.16832z" p-id="10497"></path><path d="M258.27328 789.888c-20.03968 0-36.30592 16.26112-36.30592 36.3008 0 20.03968 16.24064 36.30592 36.30592 36.30592l473.46176 0c20.03968 0 36.30592-16.26624 36.30592-36.30592 0-20.03968-16.26624-36.3008-36.30592-36.3008L258.27328 789.888z" p-id="10498"></path></svg>