<?xml version="1.0" encoding="UTF-8"?>
<svg width="180px" height="180px" viewBox="0 0 180 180" version="1.1" xmlns="http://www.w3.org/2000/svg" xmlns:xlink="http://www.w3.org/1999/xlink">
    <!-- Generator: Sketch 54 (76480) - https://sketchapp.com -->
    <title>delivery</title>
    <desc>Created with Sketch.</desc>
    <g id="Page-1" stroke="none" stroke-width="1" fill="none" fill-rule="evenodd">
        <g id="delivery" fill="#000000" fill-rule="nonzero">
            <path d="M89.9998,0.0136 C40.3398,0.0136 0.081,40.2716 0.081,89.9338 C0.081,139.596 40.34,179.8526 89.9998,179.8526 C139.662,179.8526 179.9186,139.596 179.9186,89.9338 C179.9186,40.2716 139.662,0.0136 89.9998,0.0136 Z M147.1092,64.7418 L127.3152,64.7418 L127.3152,74.1964 L138.6182,74.1964 L138.6182,79.192 L127.3152,79.192 L127.3152,88.6438 L140.0774,88.6438 L140.0774,93.6396 L127.3152,93.6396 L127.3152,103.0914 L142.8652,103.0914 L142.8652,108.087 L127.315,108.087 L127.315,115.3556 L118.7656,115.3556 C118.7656,122.0048 113.3724,127.4002 106.7184,127.4002 C100.0666,127.4002 94.6738,122.0046 94.6738,115.3556 L65.5324,115.3556 C65.5324,122.0048 60.137,127.4002 53.488,127.4002 C46.834,127.4002 41.4408,122.0046 41.4408,115.3556 L32.8916,115.3556 L32.8916,83.5922 L51.5806,64.903 L65.1182,64.903 L65.1182,52.4666 L127.3154,52.4666 L127.3154,59.7454 L147.1094,59.7454 L147.1094,64.742 L147.1092,64.7418 Z" id="Shape"></path>
            <polygon id="Path" points="65.1178 71.079 54.7996 71.1326 39.828 86.1092 39.828 94.339 65.1178 94.339"></polygon>
        </g>
    </g>
</svg>