<?xml version="1.0" standalone="no"?><!DOCTYPE svg PUBLIC "-//W3C//DTD SVG 1.1//EN" "http://www.w3.org/Graphics/SVG/1.1/DTD/svg11.dtd"><svg t="1571323632854" class="icon" viewBox="0 0 1024 1024" version="1.1" xmlns="http://www.w3.org/2000/svg" p-id="12581" xmlns:xlink="http://www.w3.org/1999/xlink" width="200" height="200"><defs><style type="text/css"></style></defs><path d="M769.414 738.502H199.421c-23.686 0-43.066 20.077-43.066 44.616 0 24.539 19.38 44.617 43.066 44.617h569.993c23.687 0 43.066-20.078 43.066-44.617 0-24.539-19.379-44.616-43.066-44.616zM1000.675 281.667c-92.116-61.879-187.084-21.652-187.084-21.652l-155.467 78.691-501.223-137.438s-62.296-21.371-83.557 24.225c-21.261 45.596 31.683 76.364 31.683 76.364l327.261 151.19-249.399 126.25-122.172-56.97c-20.932-9.761-46.044-0.621-55.804 20.311-9.76 20.932-0.62 46.044 20.311 55.804l137.959 64.331c4.684 2.184 9.578 3.373 14.462 3.743 0.485 0.04 0.966 0.1 1.453 0.122 0.493 0.02 0.982 0.002 1.474 0.005 4.894 0.055 9.867-0.703 14.72-2.469l143.041-52.063c1.644-0.598 3.206-1.319 4.728-2.097C562.896 529.621 956.808 385.56 978.796 377.47c30.591-11.255 43.088-32.905 44.168-56.959 1.08-24.051-22.289-38.844-22.289-38.844z" p-id="12582"></path></svg>