<?xml version="1.0" standalone="no"?><!DOCTYPE svg PUBLIC "-//W3C//DTD SVG 1.1//EN" "http://www.w3.org/Graphics/SVG/1.1/DTD/svg11.dtd"><svg t="1573048193436" class="icon" viewBox="0 0 1024 1024" version="1.1" xmlns="http://www.w3.org/2000/svg" p-id="8611" xmlns:xlink="http://www.w3.org/1999/xlink" width="200" height="200"><defs><style type="text/css"></style></defs><path d="M524.939636 887.947636H66.094545c-14.894545-1.582545-28.532364-10.193455-39.470545-22.388363C10.379636 848.430545 0 823.947636 0 801.047273V226.583273c0-21.969455 9.634909-45.521455 24.948364-62.557091 11.170909-13.265455 25.460364-22.714182 41.192727-24.389818h458.798545v0.093091h406.481455c40.494545 0 92.578909 30.301091 92.578909 71.074909V816.872727c0 40.773818-52.037818 71.074909-92.578909 71.074909h-406.481455z m445.858909-310.644363V245.480727c0-30.394182-26.996364-52.968727-57.344-52.968727h-805.236363c-6.749091 0-13.265455 1.117091-19.269818 3.258182-20.805818 7.866182-35.746909 28.113455-35.746909 51.805091V780.101818c0 23.645091 14.894545 43.938909 35.746909 51.805091 6.004364 2.094545 12.520727 3.258182 19.269818 3.258182h805.236363c30.347636 0 57.344-22.574545 57.344-53.015273v-204.893091z m-124.741818-247.528728c11.822545 0 21.317818 9.588364 21.317818 21.41091a21.271273 21.271273 0 0 1-21.271272 21.317818h-283.089455a21.271273 21.271273 0 0 1-21.271273-21.271273c0-11.869091 9.495273-21.410909 21.271273-21.410909h283.089455z m0 106.309819c11.822545 0 21.317818 9.588364 21.317818 21.317818 0 11.869091-9.495273 21.410909-21.271272 21.410909h-283.089455a21.410909 21.410909 0 0 1 0-42.728727h283.089455z m-185.437091 127.627636a21.271273 21.271273 0 0 1-21.271272 21.317818h-76.334546a21.271273 21.271273 0 0 1 0-42.635636h76.334546c11.776 0 21.271273 9.588364 21.271272 21.317818z m-317.300363-76.288c-61.021091 0-110.731636-53.154909-110.731637-118.504727 0-65.303273 49.710545-118.458182 110.778182-118.458182 61.021091 0 110.731636 53.154909 110.731637 118.458182 0 65.349818-49.710545 118.504727-110.778182 118.504727z m-12.8 172.962909c-96.069818 6.935273-139.170909 83.037091-137.960728 129.396364H131.351273c-4.654545-3.490909-16.756364-23.924364-30.952728-50.920728-12.893091-27.042909 6.981818-52.875636 14.801455-65.722181 11.217455-19.549091 49.198545-78.242909 74.007273-118.551273 16.151273-24.994909 24.436364-25.786182 24.436363-25.786182 65.070545-29.789091 127.720727-24.855273 130.141091-24.855273 35.933091 0 66.606545 5.911273 88.808728 11.636364L330.472727 660.386909z m241.384727 13.405091c13.358545 23.738182 25.227636 35.793455 14.336 63.581091-29.230545 53.015273-35.188364 52.410182-35.188364 52.410182l-55.994181-0.093091c0-51.060364-46.173091-123.810909-139.589819-129.396364l97.792-138.798545 10.612364 3.304727c25.739636 7.912727 39.563636 37.515636 43.938909 45.242182 3.351273 5.911273 45.242182 71.493818 64.093091 103.796363z m-228.631273 20.898909c64.465455 0 116.689455 41.751273 116.689455 95.092364H226.583273c0-53.341091 52.270545-95.092364 116.689454-95.092364z" fill="#2c2c2c" p-id="8612"></path></svg>