<?xml version="1.0" encoding="UTF-8"?>
<svg width="180px" height="180px" viewBox="0 0 180 180" version="1.1" xmlns="http://www.w3.org/2000/svg" xmlns:xlink="http://www.w3.org/1999/xlink">
    <!-- Generator: Sketch 54 (76480) - https://sketchapp.com -->
    <title>fish</title>
    <desc>Created with Sketch.</desc>
    <g id="Page-1" stroke="none" stroke-width="1" fill="none" fill-rule="evenodd">
        <g id="fish" fill="#4A90E2" fill-rule="nonzero">
            <path d="M127.491208,35.5078916 C123.611747,35.5078916 120.466822,32.3598954 120.466822,28.4766454 C120.466822,24.5933953 123.611747,21.4453992 127.491208,21.4453992 C131.37067,21.4453992 134.515595,24.5933953 134.515595,28.4766454 C134.515595,32.3598954 131.37067,35.5078916 127.491208,35.5078916 L127.491208,35.5078916 Z M175.179768,64.3528758 C177.981093,65.3485003 179.821482,68.0386551 179.821482,71.0142783 L179.821482,95.0962964 C179.821482,117.773471 170.998853,139.095022 154.979037,155.129076 C138.959222,171.165942 117.658472,179.997187 95.0034212,179.997187 L89.9107411,179.997187 C65.894364,179.997187 43.3165812,170.635786 26.3344246,153.637046 C9.35226808,136.638305 0,114.037067 0,89.998643 C0,89.5233306 0.00983414634,89.050831 0.0168585366,88.5783312 C0.0112390244,88.4658312 0,88.3533313 0,88.2408313 L0,7.03134457 C-4.75097008e-16,3.14809456 3.14492491,9.84375e-05 7.02438638,9.84375e-05 L161.268673,9.84375e-05 C167.025951,-0.0189156992 172.461415,2.65595315 175.962284,7.23103207 C179.479401,11.756456 180.681972,17.6669816 179.21317,23.2088358 C171.89376,51.1496017 146.605969,70.662716 117.717477,70.662716 L97.2863468,70.662716 C84.3109002,70.662716 73.7546523,81.230679 73.7546523,94.2173907 C73.7546523,115.886285 89.9472679,134.056431 111.419412,136.485024 C115.274433,136.920336 118.046999,140.40139 117.612111,144.260176 C117.177224,148.118961 113.699566,150.894235 109.844545,150.458922 C81.2609117,147.227362 59.7058795,123.049719 59.7058795,94.2173907 C59.7058795,73.4752146 76.564407,56.60163 97.2863468,56.60163 L98.6617217,56.60163 C93.3864074,50.0864773 90.6117749,41.5266383 90.6117749,31.6407062 C90.6117749,27.7574562 93.7566998,24.6094601 97.6361612,24.6094601 C101.515623,24.6094601 104.660548,27.7574562 104.660548,31.6407062 C104.660548,46.6102292 113.047665,55.1953809 127.666818,55.1953807 C128.100925,55.1953807 128.523793,55.2403807 128.938232,55.3163182 C146.539939,51.224133 160.89638,37.6903904 165.623792,19.6425877 C166.101451,17.8229013 165.337197,16.467277 164.839871,15.8232148 C163.989483,14.710287 162.668437,14.0590024 161.268673,14.0625907 L89.8952874,14.0625907 C69.6327424,14.0625907 50.5840113,21.9614926 36.2584777,36.3038286 C21.9315393,50.6475707 14.0445581,69.7163103 14.0487728,89.9972367 C14.0487728,131.87112 48.08052,165.934695 89.9107411,165.934695 L95.0034212,165.934695 C118.507018,165.934695 139.370851,154.406264 152.249361,136.702992 C152.266219,136.168618 152.344892,135.627212 152.491,135.088618 C157.719953,115.748473 123.661513,98.2280136 123.315913,98.0564511 C120.924919,96.8691754 119.412706,94.4280921 119.413164,91.7564546 L119.413164,91.4062985 C119.413623,87.7918831 122.151652,84.7665898 125.744946,84.4102085 C140.587474,82.9406781 151.119839,78.1495868 157.343446,74.3906828 C163.876125,70.4419349 167.180396,66.7617808 167.42625,66.4833433 C169.303166,64.191157 172.388277,63.3600638 175.179768,64.354282 L175.179768,64.3528758 Z M14.0487728,14.0625907 L14.0487728,41.6292943 C17.577595,36.1114425 21.6930624,30.9923783 26.3231856,26.3616465 C30.953168,21.7217925 36.0720044,17.5980174 41.5899869,14.0625907 L14.0487728,14.0625907 Z M162.881472,115.157848 C164.804171,108.644669 165.777949,101.88787 165.772709,95.0962964 L165.77273,85.6969265 C160.500205,89.0184872 153.499701,92.5031728 144.661619,95.0653589 C151.249088,100.109575 158.456109,106.95379 162.882877,115.157848 L162.881472,115.157848 Z" id="Shape"></path>
        </g>
    </g>
</svg>