<?xml version="1.0" encoding="UTF-8"?>
<svg width="160px" height="160px" viewBox="0 0 160 160" version="1.1" xmlns="http://www.w3.org/2000/svg" xmlns:xlink="http://www.w3.org/1999/xlink">
    <!-- Generator: Sketch 54 (76480) - https://sketchapp.com -->
    <title>pickup</title>
    <desc>Created with Sketch.</desc>
    <g id="Page-1" stroke="none" stroke-width="1" fill="none" fill-rule="evenodd">
        <g id="pickup" fill="#000000" fill-rule="nonzero">
            <path d="M82.474499,0.359156118 C80.7247434,-0.0836894187 78.9030759,-0.0836894187 77.1533202,0.359156118 L54.7017682,7.03459916 C53.2231041,7.46666667 53.2231041,8.16877637 54.7017682,8.60084388 L129.831984,30.4634599 C131.36424,30.9788745 132.433187,32.4676635 132.507662,34.1900422 L132.507662,73.702616 C132.422395,75.4642723 131.423411,77.0253919 129.922515,77.7424473 L118.193792,82.6248101 C116.765422,83.2405063 115.608644,82.3763713 115.608644,80.7561181 L115.608644,41.4919831 C115.541488,39.7701929 114.474882,38.2790576 112.943026,37.7654008 L33.7288802,14.9306329 C31.9732621,14.5075048 30.1517611,14.5111953 28.3976424,14.9414346 L2.72722986,22.5674262 C1.19424235,23.0987672 0.130941488,24.5982068 0.061611002,26.3264135 L0.061611002,128.240338 C0.061611002,129.871392 1.24856582,131.621266 2.69705305,132.118143 L82.5952063,159.608439 C84.3155812,160.113095 86.1348396,160.075598 87.8359136,159.500422 L157.343183,132.236962 C158.849549,131.548291 159.857351,129.996273 159.938389,128.240338 L159.948448,26.3696203 C159.875013,24.6454412 158.812485,23.1513968 157.282829,22.6214346 L82.474499,0.359156118 Z" id="Path"></path>
        </g>
    </g>
</svg>