<?xml version="1.0" standalone="no"?><!DOCTYPE svg PUBLIC "-//W3C//DTD SVG 1.1//EN" "http://www.w3.org/Graphics/SVG/1.1/DTD/svg11.dtd"><svg t="1573048071893" class="icon" viewBox="0 0 1024 1024" version="1.1" xmlns="http://www.w3.org/2000/svg" p-id="7802" xmlns:xlink="http://www.w3.org/1999/xlink" width="200" height="200"><defs><style type="text/css"></style></defs><path d="M645.485714 755.931429a66.925714 66.925714 0 1 0 33.645715-58.148572 66.925714 66.925714 0 0 0-33.645715 58.148572zM243.2 755.931429a66.925714 66.925714 0 1 0 33.645714-58.148572 66.925714 66.925714 0 0 0-33.645714 58.148572z" fill="#2c2c2c" p-id="7803"></path><path d="M727.771429 320.365714h-65.462858V270.262857A49.371429 49.371429 0 0 0 612.205714 219.428571H159.817143A49.371429 49.371429 0 0 0 109.714286 270.262857v435.2a49.371429 49.371429 0 0 0 50.102857 50.102857h50.468571a100.571429 100.571429 0 0 1 200.777143 0h200.777143a100.571429 100.571429 0 0 1 200.777143 0h50.468571a49.371429 49.371429 0 0 0 51.2-50.102857V475.428571a50.102857 50.102857 0 0 0-20.114285-40.228571L757.76 329.142857a50.102857 50.102857 0 0 0-29.988571-9.874286z m152.502857 234.422857h-219.428572V354.011429h50.102857a46.811429 46.811429 0 0 1 29.988572 9.874285l117.394286 90.331429a52.297143 52.297143 0 0 1 20.114285 40.228571v60.342857z" fill="#2c2c2c" p-id="7804"></path></svg>